<svg width="48" height="48" viewBox="0 0 48 48" fill="none" xmlns="http://www.w3.org/2000/svg">
	<path fill-rule="evenodd" clip-rule="evenodd" d="M20.6 6C12.5366 6 6 12.5366 6 20.6C6 28.6634 12.5366 35.2 20.6 35.2C23.9105 35.2 26.9636 34.0982 29.4127 32.2413L39.5857 42.4142L42.4141 39.5858L32.2412 29.4129C34.0982 26.9637 35.2 23.9105 35.2 20.6C35.2 12.5366 28.6634 6 20.6 6ZM10 20.6C10 14.7458 14.7458 10 20.6 10C26.4542 10 31.2 14.7458 31.2 20.6C31.2 26.4542 26.4542 31.2 20.6 31.2C14.7458 31.2 10 26.4542 10 20.6Z" fill="#0A0A0A"/>
</svg>
