<svg width="16" height="16" viewBox="0 0 16 16" fill="none" xmlns="http://www.w3.org/2000/svg">
	<path d="M8 8.66683C8.36819 8.66683 8.66667 8.36835 8.66667 8.00016C8.66667 7.63197 8.36819 7.3335 8 7.3335C7.63181 7.3335 7.33334 7.63197 7.33334 8.00016C7.33334 8.36835 7.63181 8.66683 8 8.66683Z" fill="currentColor" stroke="currentColor" stroke-width="2" stroke-linecap="round" stroke-linejoin="round"/>
	<path d="M7.99967 2.9974C8.36786 2.9974 8.66634 2.69892 8.66634 2.33073C8.66634 1.96254 8.36786 1.66406 7.99967 1.66406C7.63148 1.66406 7.33301 1.96254 7.33301 2.33073C7.33301 2.69892 7.63148 2.9974 7.99967 2.9974Z" fill="currentColor" stroke="currentColor" stroke-width="2" stroke-linecap="round" stroke-linejoin="round"/>
	<path d="M7.99967 14.3333C8.36786 14.3333 8.66634 14.0349 8.66634 13.6667C8.66634 13.2985 8.36786 13 7.99967 13C7.63148 13 7.33301 13.2985 7.33301 13.6667C7.33301 14.0349 7.63148 14.3333 7.99967 14.3333Z" fill="currentColor" stroke="currentColor" stroke-width="2" stroke-linecap="round" stroke-linejoin="round"/>
</svg>
